<?xml version="1.0" encoding="iso-8859-1"?>
<!-- Uploaded to: SVG Repo, www.svgrepo.com, Generator: SVG Repo Mixer Tools -->
<!DOCTYPE svg PUBLIC "-//W3C//DTD SVG 1.1//EN" "http://www.w3.org/Graphics/SVG/1.1/DTD/svg11.dtd">
<svg fill="#000000" version="1.1" id="Capa_1" xmlns="http://www.w3.org/2000/svg" xmlns:xlink="http://www.w3.org/1999/xlink" 
	 width="800px" height="800px" viewBox="0 0 32.004 32.003"
	 xml:space="preserve">
<g>
	<path d="M31.627,7.227c-0.116,0.099-3.498,1.634-4.447,2.067c-1.431,0.049-5.325,0.533-10.354,5.126
		c-0.235-0.187-0.545-0.198-0.57-0.324c-0.042-0.206,0.25-0.596,0.252-0.599c0.127-0.168,0.203-0.398,0.195-0.648
		c-0.01-0.336-0.167-0.62-0.39-0.77c0.609-0.874,1.831-2.187,3.01-3.151c0.422-0.345,0.562-0.792,0.393-1.258
		c-0.218-0.603-0.921-1.088-1.566-1.083c-0.507,0.007-0.898,0.302-1.093,0.836c-0.029,0.055-0.049,0.114-0.047,0.18
		c0.006,0.203,0.176,0.363,0.379,0.356c0.203-0.006,0.363-0.175,0.356-0.379c-0.006-0.17-0.128-0.304-0.285-0.341
		c0.197-0.296,0.467-0.376,0.69-0.37c0.527-0.005,1.122,0.406,1.298,0.897c0.089,0.243,0.107,0.604-0.306,0.943
		c-0.64,0.523-2.335,2.102-3.107,3.264c-0.025-0.002-0.051-0.007-0.078-0.007c-0.844-1.112-2.626-2.575-3.295-3.058
		c-0.432-0.313-0.436-0.675-0.363-0.924c0.146-0.5,0.715-0.946,1.241-0.975c0.224-0.02,0.497,0.044,0.713,0.327
		c-0.155,0.047-0.269,0.188-0.264,0.358c0.007,0.203,0.176,0.362,0.379,0.355c0.204-0.006,0.363-0.176,0.356-0.379
		c-0.002-0.065-0.025-0.123-0.057-0.177c-0.227-0.521-0.636-0.791-1.143-0.767c-0.645,0.034-1.315,0.563-1.496,1.178
		c-0.14,0.475,0.027,0.912,0.469,1.23c1.212,0.875,2.487,2.079,3.159,2.912c-0.253,0.147-0.424,0.472-0.413,0.843
		c0.008,0.251,0.097,0.476,0.235,0.636c0.001,0.001,0.283,0.419,0.229,0.635c-0.027,0.109-0.198,0.129-0.357,0.253
		c-5.112-4.74-9.08-5.236-10.526-5.286C3.874,8.692,0.493,7.157,0.376,7.06C0.26,6.961-0.016,6.667,0,7.06s2.568,1.565,2.443,1.848
		c-0.282,1.691,2.6,2.693,2.6,2.693s-2.253-0.193-2.253,0.284c0,0.479,1.033,0.689,1.033,0.689s-0.708,0.067-0.689,0.439
		c0.02,0.372,0.564,0.533,0.564,0.533s-0.536,0.141-0.469,0.594c0.066,0.455,0.626,0.407,0.626,0.407s-0.427,0.255-0.376,0.533
		c0.051,0.277,0.94,0.595,0.94,0.595s-0.196,0.263-0.22,0.688c0.153,1.532,2.54,4.244,4.729,3.258
		c2.188-0.987,6.264-1.409,6.264-1.409s-6.095,1.244-6.138,3.037c0.02,0.838,0.421,1.463,0.532,1.566
		c0.111,0.103,0.407,0.379,0.658,0.595c0.25,0.215,0.804,0.228,0.877,0.345c0.073,0.116,0.313,0.431,0.454,1.033
		c0.141,0.604,1.539,0.474,2.114,0.407c0.576-0.067,1.973-5.262,1.973-5.262s0.001-0.02,0.003-0.054
		c0.254,1.36,0.536,2.841,0.625,3.645c-0.015-0.496,0.091-1.607,0.227-2.804c0.392,1.384,1.348,4.586,1.799,4.639
		c0.575,0.065,1.974,0.194,2.114-0.407s0.381-0.917,0.454-1.033s0.626-0.129,0.877-0.345c0.25-0.215,0.546-0.491,0.658-0.595
		c0.111-0.104,0.513-0.729,0.532-1.566c-0.044-1.792-6.139-3.037-6.139-3.037s4.075,0.423,6.265,1.409
		c2.188,0.986,4.575-1.727,4.729-3.257c-0.023-0.427-0.219-0.689-0.219-0.689s0.889-0.317,0.938-0.595
		c0.052-0.278-0.375-0.532-0.375-0.532s0.561,0.047,0.626-0.407c0.066-0.454-0.47-0.596-0.47-0.596s0.544-0.159,0.564-0.532
		c0.019-0.372-0.689-0.438-0.689-0.438s1.033-0.211,1.033-0.688s-2.254-0.282-2.254-0.282s2.881-1.002,2.599-2.692
		c-0.126-0.284,2.425-1.459,2.442-1.85C32.018,6.835,31.743,7.128,31.627,7.227z"/>
</g>
</svg>