<?xml version="1.0" encoding="utf-8"?>

<!DOCTYPE svg PUBLIC "-//W3C//DTD SVG 1.1//EN" "http://www.w3.org/Graphics/SVG/1.1/DTD/svg11.dtd">
<!-- Uploaded to: SVG Repo, www.svgrepo.com, Generator: SVG Repo Mixer Tools -->
<svg version="1.1" id="_x32_" xmlns="http://www.w3.org/2000/svg" xmlns:xlink="http://www.w3.org/1999/xlink" 
	 width="800px" height="800px" viewBox="0 0 512 512"  xml:space="preserve">
<style type="text/css">
<![CDATA[
	.st0{fill:#000000;}
]]>
</style>
<g>
	<path class="st0" d="M243.695,179.339c0.703,4.906,5.813,7.438,7.719,1.406c1.891-6.031-4.828-17.219-22.219-36.531
		c-14.828-16.484-35.625-39.391-23.844-51.578c14.609-10.078,8.469-27.75-4.172-29.469c-11.313-1.516-21.609,13.578-15.031,38.703
		C192.711,126.964,241.695,165.292,243.695,179.339z"/>
	<path class="st0" d="M445.898,83.886c-74.469,0-160.703,89.859-174.516,111.078c-3.594-4.578-9.109-7.578-15.375-7.578
		c-6.281,0-11.797,3-15.391,7.578C226.805,173.73,140.57,83.886,66.102,83.886c-76.828,0-70.547,68.984-59.578,112.891
		c10.969,43.922,56.453,92.516,106.609,94.094c-56.438,25.078-61.141,89.375-43.891,119.156
		c16.359,28.25,103.266,92.016,167.156-50.296v29.141c0,10.813,8.781,19.593,19.609,19.593c10.813,0,19.594-8.781,19.594-19.593
		v-29.156c63.891,142.328,150.813,78.562,167.156,50.312c17.25-29.781,12.547-94.078-43.891-119.156
		c50.172-1.578,95.641-50.172,106.609-94.094C516.445,152.871,522.727,83.886,445.898,83.886z"/>
	<path class="st0" d="M268.305,179.339c2-14.047,50.984-52.375,57.563-77.469c6.563-25.125-3.734-40.219-15.047-38.703
		c-12.641,1.719-18.766,19.391-4.172,29.469c11.781,12.188-9.016,35.094-23.844,51.578c-17.391,19.313-24.109,30.5-22.219,36.531
		C262.492,186.777,267.602,184.246,268.305,179.339z"/>
</g>
</svg>